<svg id="visual" viewBox="0 0 900 600" width="900" height="600" xmlns="http://www.w3.org/2000/svg" xmlns:xlink="http://www.w3.org/1999/xlink" version="1.1"><rect x="0" y="0" width="900" height="600" fill="#006991"></rect><defs><linearGradient id="grad1_0" x1="33.3%" y1="100%" x2="100%" y2="0%"><stop offset="20%" stop-color="#006991" stop-opacity="1"></stop><stop offset="80%" stop-color="#006991" stop-opacity="1"></stop></linearGradient></defs><defs><linearGradient id="grad2_0" x1="0%" y1="100%" x2="66.7%" y2="0%"><stop offset="20%" stop-color="#006991" stop-opacity="1"></stop><stop offset="80%" stop-color="#006991" stop-opacity="1"></stop></linearGradient></defs><g transform="translate(900, 600)"><path d="M-459.7 0C-467.7 -46.6 -475.7 -93.2 -444 -119C-412.4 -144.8 -341.2 -149.8 -323 -186.5C-304.9 -223.2 -339.8 -291.7 -323.9 -323.9C-307.9 -356 -241.2 -351.8 -191 -330.8C-140.8 -309.8 -107 -272.1 -77.9 -290.7C-48.8 -309.4 -24.4 -384.6 0 -459.7L0 0Z" fill="#f7931d"></path></g><g transform="translate(0, 0)"><path d="M459.7 0C456.1 38.4 452.4 76.7 444 119C435.7 161.2 422.6 207.4 379.3 219C336 230.6 262.4 207.6 231.9 231.9C201.4 256.2 214.1 327.8 192.5 333.4C170.9 339.1 115.2 278.8 77.4 288.8C39.6 298.9 19.8 379.3 0 459.7L0 0Z" fill="#f7931d"></path></g></svg>