<svg id="visual" viewBox="0 0 1920 1080" width="1920" height="1080" xmlns="http://www.w3.org/2000/svg" xmlns:xlink="http://www.w3.org/1999/xlink" version="1.1"><g fill="#016891"><circle r="101" cx="1322" cy="796"></circle><circle r="32" cx="898" cy="133"></circle><circle r="43" cx="268" cy="835"></circle><circle r="50" cx="1095" cy="467"></circle><circle r="66" cx="1352" cy="516"></circle><circle r="95" cx="1443" cy="164"></circle><circle r="40" cx="469" cy="371"></circle><circle r="86" cx="512" cy="703"></circle><circle r="48" cx="198" cy="298"></circle><circle r="80" cx="1623" cy="882"></circle><circle r="68" cx="925" cy="586"></circle><circle r="69" cx="1101" cy="852"></circle><circle r="75" cx="323" cy="577"></circle><circle r="94" cx="112" cy="563"></circle><circle r="65" cx="894" cy="903"></circle><circle r="52" cx="1719" cy="173"></circle><circle r="39" cx="664" cy="956"></circle><circle r="66" cx="576" cy="142"></circle><circle r="49" cx="843" cy="374"></circle><circle r="72" cx="1636" cy="408"></circle></g></svg>